@startuml
'http://plantuml.com/skinparam.html
skinparam handwritten true
skinparam monochrome true
skinparam packageStyle rect
skinparam defaultFontName FG Virgil
skinparam shadowing false

class ListUsersUI <<presentation>>
class ListUsersController <<application>>
class AuthorizationService <<service>>
class UserManagementService <<service>>
class AuthzRegistry <<util>>
class PersistenceContext  <<persistence>>
class RepositoryFactory  <<factory>>
class UserRepository <<repository>>

ListUsersUI --> ListUsersController : theController
ListUsersController --> AuthorizationService: authz
ListUsersController --> UserManagementService: userSvc
ListUsersController ..> AuthzRegistry
AuthzRegistry ..> AuthorizationService
AuthzRegistry ..> UserManagementService
UserManagementService --> PersistenceContext: persistence
PersistenceContext --> RepositoryFactory: factory
RepositoryFactory --> UserRepository: userRepository
UserManagementService --> UserRepository: userRepository

ListUsersUI : doShow()
ListUsersUI : show()
ListUsersController : listAllUsers()
AuthorizationService : ensureAuthenticatedUserHasAnyOf(Role...)
UserManagementService : allUsers()
PersistenceContext : repositories()
RepositoryFactory : users()
UserRepository : findAll()
AuthzRegistry : authorizationService()
AuthzRegistry : userService()

@enduml